<svg width="26" height="26" viewBox="0 0 26 26" fill="none" xmlns="http://www.w3.org/2000/svg">
<path fill-rule="evenodd" clip-rule="evenodd" d="M2.72897 8.47447C2.1665 9.50205 2.1665 10.7416 2.1665 13.2207V14.8685C2.1665 19.0945 2.1665 21.2075 3.43571 22.5203C4.70491 23.8332 6.74766 23.8332 10.8332 23.8332H15.1665C19.252 23.8332 21.2948 23.8332 22.564 22.5203C23.8332 21.2075 23.8332 19.0945 23.8332 14.8685V13.2207C23.8332 10.7416 23.8332 9.50205 23.2707 8.47447C22.7082 7.4469 21.6806 6.80914 19.6255 5.53364L17.4588 4.18895C15.2863 2.84065 14.2001 2.1665 12.9998 2.1665C11.7996 2.1665 10.7133 2.84065 8.54087 4.18895L6.37421 5.53364C4.31903 6.80914 3.29144 7.4469 2.72897 8.47447ZM9.74984 18.6873C9.30111 18.6873 8.93734 19.0511 8.93734 19.4998C8.93734 19.9486 9.30111 20.3123 9.74984 20.3123H16.2498C16.6986 20.3123 17.0623 19.9486 17.0623 19.4998C17.0623 19.0511 16.6986 18.6873 16.2498 18.6873H9.74984Z" fill="black"/>
</svg>
